<svg class="icon" viewBox="0 0 1024 1024" xmlns="http://www.w3.org/2000/svg"><path d="M290.016 236.416l43.904-43.904a8 8 0 00-4.704-13.6L169.024 160a8 8 0 00-8.896 8.896l18.912 160.192a8 8 0 0013.6 4.704l43.712-43.712 133.696 133.6a8 8 0 0011.296 0l42.4-42.304a8 8 0 000-11.296L290.048 236.384zm352.672 187.296a8 8 0 0011.296 0l133.696-133.6 43.712 43.712a8 8 0 0013.6-4.704l18.912-160.096a8 8 0 00-8.896-8.896L694.816 179.04a8 8 0 00-4.704 13.6l43.904 43.904L600.32 370.048a8 8 0 000 11.296l42.4 42.4zm202.304 271.2a8 8 0 00-13.6-4.704L787.68 733.92l-133.696-133.6a8 8 0 00-11.296 0l-42.4 42.304a8 8 0 000 11.296l133.696 133.696-43.904 43.904a8 8 0 004.704 13.6l160.192 18.912a8 8 0 008.896-8.896L844.96 694.944zm-463.68-94.624a8 8 0 00-11.296 0l-133.696 133.6-43.712-43.712a8 8 0 00-13.6 4.704l-18.912 160.096a8 8 0 008.896 8.896l160.192-18.912a8 8 0 004.704-13.6l-43.904-43.808 133.696-133.6a8 8 0 000-11.296l-42.4-42.4z"/></svg>